<svg width="823" height="516" viewBox="0 0 823 516" fill="none" xmlns="http://www.w3.org/2000/svg">
<g clip-path="url(#clip0_1255_18258)">
<path fill-rule="evenodd" clip-rule="evenodd" d="M374.794 211.123C374.994 194.761 388.164 181.591 404.726 181.392C421.687 180.992 435.455 195.559 435.455 212.72V217.11C435.455 222.034 438.174 226.395 442.199 228.652C444.045 229.687 446.166 230.28 448.426 230.28C450.685 230.28 452.806 229.687 454.653 228.652C458.677 226.395 461.396 222.034 461.396 217.11V209.727C461.396 192.167 475.763 177.8 493.323 177.8H529.839C543.472 177.8 555.259 186.66 559.692 198.969C560.904 202.334 561.566 205.957 561.566 209.727V285.752C561.566 289.526 560.903 293.142 559.689 296.495C555.254 308.747 543.469 317.48 529.839 317.48H383.175C367.365 317.48 354.218 306.083 351.639 290.938C351.223 288.498 351.082 285.961 351.248 283.358C351.773 274.441 356.157 266.683 362.663 261.329C368.532 256.499 376.128 253.626 384.173 253.626H515.672C530.919 253.626 543.366 241.678 544.165 226.63C544.193 226.121 544.206 225.608 544.206 225.091V222.098C544.206 218.506 540.814 215.713 537.222 216.312C534.495 216.896 532.529 219.382 532.437 222.098C532.434 222.165 532.433 222.231 532.433 222.298C532.433 223.246 532.364 224.179 532.229 225.091C532.184 225.399 532.132 225.704 532.072 226.007C530.485 234.055 523.846 240.368 515.672 241.625C514.694 241.775 513.694 241.853 512.678 241.853H406.123C402.868 241.853 399.702 241.354 396.712 240.425C384.115 236.514 374.633 224.992 374.794 211.123ZM373.979 241.556C366.283 233.74 361.454 223.063 361.594 210.97L361.594 210.966L361.594 210.962C361.882 187.404 380.854 168.517 404.491 168.192C427.459 167.692 445.489 185.545 448.28 206.939C449.729 183.377 469.408 164.599 493.323 164.599H503.628H529.839C544.961 164.599 558.404 172.216 566.558 183.813C573.111 174.445 583.126 167.665 594.79 165.412C597.552 164.878 600.407 164.599 603.33 164.599H707.292C731.997 164.599 752.22 184.93 752.22 209.727V213.119C752.22 221.925 749.477 230.081 744.796 236.782C742.824 239.605 740.508 242.17 737.909 244.416H753.785C754.576 244.416 755.361 244.439 756.141 244.483C774.556 245.542 789.927 258.923 794.04 276.411C794.748 279.417 795.122 282.545 795.122 285.752C795.122 310.657 774.79 330.681 750.194 330.681H735.248H603.33C588.111 330.681 574.681 323.15 566.558 311.604C558.386 323.16 544.914 330.681 529.839 330.681H383.175C364.772 330.681 348.904 319.716 341.861 303.888C326.671 320.379 304.891 330.681 280.741 330.681H171.99C147.139 330.681 127.061 310.603 127.061 285.752V209.727C127.061 184.984 147.032 164.599 171.99 164.599H280.741C325.698 164.599 362.404 200.475 363.744 245.113C366.993 243.55 370.429 242.35 373.979 241.556ZM350.209 254.9C350.455 252.514 350.581 250.092 350.581 247.64C350.581 209.128 319.252 177.8 280.741 177.8H171.99C154.43 177.8 140.262 192.167 140.262 209.727V285.752C140.262 303.312 154.43 317.48 171.99 317.48H280.741C304.425 317.48 325.393 305.706 338.028 287.636C339.13 286.058 340.17 284.433 341.142 282.763C341.151 282.747 341.161 282.731 341.17 282.715C346.007 274.392 349.174 264.971 350.209 254.9ZM573.465 296.514C577.86 308.756 589.551 317.48 603.33 317.48H740.667H750.194C767.554 317.48 781.921 303.312 781.921 285.752C781.921 270.388 769.15 257.617 753.785 257.617H707.606H680.753C674.766 257.617 669.977 262.605 669.977 268.592V269.19C669.977 275.177 664.989 280.165 659.003 280.165H606.722C599.938 280.165 594.351 274.578 594.351 267.794V266.995C594.351 262.646 596.647 258.789 600.082 256.58C602.006 255.344 604.287 254.624 606.722 254.624H616.699C619.13 254.624 621.628 255.295 623.764 256.56C625.311 257.476 626.669 258.702 627.674 260.211C630.166 263.451 633.67 265.912 637.748 266.964C640.2 267.597 642.861 267.719 645.633 267.195C645.962 267.127 646.288 267.05 646.611 266.964C652.968 265.273 658.272 260.072 659.601 253.426C661.544 244.038 656.132 235.568 648.055 232.705C646.175 232.039 644.151 231.676 642.041 231.676C639.96 231.676 637.955 232.038 636.084 232.705C632.754 233.893 629.846 236.049 627.674 238.86C626.68 240.351 625.377 241.532 623.878 242.405C621.766 243.633 619.267 244.248 616.699 244.248H606.722C604.269 244.248 601.972 243.543 600.039 242.313C596.627 240.142 594.351 236.334 594.351 231.876C594.351 225.091 599.938 219.504 606.722 219.504H648.82H659.003C664.989 219.504 669.977 224.493 669.977 230.479C669.977 230.751 669.987 231.02 670.007 231.287C670.415 236.89 675.038 241.254 680.753 241.254H685.793H710.884C720.239 241.254 728.513 236.713 733.625 229.709C737.019 225.061 739.019 219.328 739.019 213.119V209.727C739.019 192.167 724.652 177.8 707.292 177.8H627.59H603.33C593.705 177.8 585.1 182.116 579.288 188.909C576.777 191.843 574.787 195.239 573.462 198.95C572.258 202.32 571.603 205.95 571.603 209.727V285.752C571.603 289.533 572.259 293.156 573.465 296.514ZM257.229 266.964H305.484C312.76 266.964 318.822 260.902 318.822 253.626C318.822 246.215 312.825 240.288 305.484 240.288H270.564C266.564 240.288 263.212 243.473 263.212 247.839C263.212 254.975 260.992 261.55 257.229 266.964ZM305.484 280.165C320.051 280.165 332.023 268.193 332.023 253.626C332.023 238.86 320.051 227.087 305.484 227.087H270.564C259.19 227.087 250.011 236.266 250.011 247.839C250.011 256.542 244.52 263.96 236.845 266.964C234.49 267.886 231.929 268.392 229.259 268.392H173.187C169.795 268.392 167.201 270.986 167.201 274.179C167.201 277.571 169.795 280.165 173.187 280.165H305.484ZM421.971 364.179C625.699 413.478 803.494 401.204 819.088 336.765C823.541 318.363 814.284 297.696 794.04 276.411C783.999 265.854 771.255 255.144 756.141 244.483C752.496 241.912 748.713 239.344 744.796 236.782C741.185 234.419 737.46 232.06 733.625 229.709C704.19 211.66 668.294 194.023 627.59 177.8C616.974 173.568 606.031 169.433 594.79 165.412C558.746 152.517 519.64 140.793 478.44 130.823C274.712 81.5239 96.9167 93.7976 81.3233 158.237C76.8513 176.718 86.2057 197.482 106.629 218.862C99.3657 207.406 96.4878 196.233 98.6578 185.715C110.324 129.17 263.471 112.975 440.721 149.543C462.396 154.015 483.428 159.069 503.628 164.599C530.462 171.945 555.829 180.13 579.288 188.909C604.938 198.507 628.308 208.814 648.82 219.504C656.268 223.386 663.34 227.319 670.007 231.287C675.554 234.588 680.821 237.913 685.793 241.254C693.867 246.681 701.161 252.148 707.606 257.617C731.89 278.223 744.125 298.861 740.667 317.48C740.626 317.701 740.583 317.921 740.537 318.142C739.624 322.571 737.842 326.753 735.248 330.681C704.732 376.901 561.841 388.018 398.474 354.314C372.93 349.044 348.279 342.966 324.83 336.252C355.423 346.537 387.985 355.955 421.971 364.179Z" fill="#FD3A00"/>
<path d="M737.909 244.416C740.508 242.17 742.824 239.605 744.796 236.782C741.185 234.419 737.46 232.06 733.625 229.709C728.513 236.713 720.239 241.254 710.884 241.254H685.793C693.867 246.681 701.161 252.148 707.606 257.617H753.785C769.15 257.617 781.921 270.388 781.921 285.752C781.921 303.312 767.554 317.48 750.194 317.48H740.667C740.626 317.701 740.583 317.921 740.537 318.142C739.624 322.571 737.842 326.753 735.248 330.681H750.194C774.79 330.681 795.122 310.657 795.122 285.752C795.122 282.545 794.748 279.417 794.04 276.411C783.999 265.854 771.255 255.144 756.141 244.483C755.361 244.439 754.576 244.416 753.785 244.416H737.909Z" fill="#FD3A00"/>
<path d="M669.977 230.479C669.977 224.493 664.989 219.504 659.003 219.504H648.82C656.268 223.386 663.34 227.319 670.007 231.287C669.987 231.02 669.977 230.751 669.977 230.479Z" fill="#FD3A00"/>
<path d="M529.839 164.599H503.628C530.462 171.945 555.829 180.13 579.288 188.909C585.1 182.116 593.705 177.8 603.33 177.8H627.59C616.974 173.568 606.031 169.433 594.79 165.412C583.126 167.665 573.111 174.445 566.558 183.813C558.404 172.216 544.961 164.599 529.839 164.599Z" fill="#FD3A00"/>
<path d="M103.133 254.518L107.442 326.387C108.312 340.898 119.885 352.471 134.396 353.341L206.266 357.65L134.396 361.96C119.885 362.83 108.312 374.403 107.442 388.913L103.133 460.783L98.8235 388.913C97.9534 374.403 86.3803 362.83 71.8698 361.96L0 357.65L71.8698 353.341C86.3802 352.471 97.9534 340.898 98.8235 326.387L103.133 254.518Z" fill="#FD3A00"/>
<path d="M686.04 0L689.195 52.6087C689.831 63.2303 698.303 71.7019 708.925 72.3388L761.533 75.4932L708.925 78.6477C698.303 79.2846 689.831 87.7561 689.195 98.3778L686.04 150.986L682.886 98.3778C682.249 87.7561 673.777 79.2846 663.156 78.6477L610.547 75.4932L663.156 72.3388C673.777 71.7019 682.249 63.2304 682.886 52.6087L686.04 0Z" fill="#FD3A00"/>
<path d="M771.641 90.7559L773.787 126.547C774.221 133.773 779.984 139.537 787.21 139.97L823.002 142.116L787.21 144.262C779.984 144.695 774.221 150.459 773.787 157.685L771.641 193.476L769.495 157.685C769.062 150.459 763.299 144.695 756.072 144.262L720.281 142.116L756.072 139.97C763.299 139.537 769.062 133.773 769.495 126.547L771.641 90.7559Z" fill="#FD3A00"/>
<path d="M280.736 177.801H171.985C154.425 177.801 140.258 192.168 140.258 209.728V285.753C140.258 303.313 154.425 317.481 171.985 317.481H280.736C319.248 317.481 350.576 286.352 350.576 247.641C350.576 209.129 319.248 177.801 280.736 177.801ZM305.479 280.166H173.182C169.79 280.166 167.196 277.572 167.196 274.18C167.196 270.987 169.79 268.393 173.182 268.393H229.254C240.628 268.393 250.006 259.214 250.006 247.84C250.006 236.267 259.185 227.088 270.559 227.088H305.479C320.046 227.088 332.018 238.861 332.018 253.627C332.018 268.194 320.046 280.166 305.479 280.166Z" fill="#F8FDFE"/>
<path d="M529.834 177.801H493.318C475.758 177.801 461.391 192.168 461.391 209.728V217.111C461.391 224.294 455.605 230.281 448.421 230.281C441.237 230.281 435.451 224.294 435.451 217.111V212.721C435.451 195.56 421.682 180.993 404.721 181.393C388.159 181.592 374.989 194.762 374.79 211.124C374.59 228.285 389.157 241.854 406.118 241.854H512.674C523.449 241.854 532.429 233.074 532.429 222.299C532.429 219.505 534.424 216.911 537.218 216.313C540.809 215.714 544.202 218.508 544.202 222.099V225.092C544.202 240.856 531.431 253.627 515.667 253.627H384.168C367.207 253.627 352.241 266.398 351.244 283.359C350.046 302.116 364.813 317.481 383.171 317.481H529.834C547.195 317.481 561.562 303.313 561.562 285.753V209.728C561.562 192.168 547.195 177.801 529.834 177.801Z" fill="#F8FDFE"/>
<path d="M753.781 257.618H680.748C674.762 257.618 669.973 262.606 669.973 268.593V269.191C669.973 275.178 664.984 280.166 658.998 280.166H606.718C599.933 280.166 594.346 274.579 594.346 267.795V266.996C594.346 260.212 599.933 254.625 606.718 254.625H616.695C620.885 254.625 625.275 256.62 627.67 260.212C631.66 265.4 638.245 268.593 645.629 267.196C652.413 265.799 658.2 260.412 659.597 253.428C661.991 241.854 653.211 231.677 642.037 231.677C636.25 231.677 631.062 234.471 627.67 238.861C625.275 242.453 621.085 244.249 616.695 244.249H606.718C599.933 244.249 594.346 238.861 594.346 231.877C594.346 225.092 599.933 219.505 606.718 219.505H658.998C664.984 219.505 669.973 224.494 669.973 230.48C669.973 236.466 674.762 241.255 680.748 241.255H710.879C726.443 241.255 739.015 228.684 739.015 213.12V209.728C739.015 192.168 724.647 177.801 707.287 177.801H603.325C585.766 177.801 571.598 192.168 571.598 209.728V285.753C571.598 303.313 585.766 317.481 603.325 317.481H750.189C767.549 317.481 781.916 303.313 781.916 285.753C781.916 270.389 769.146 257.618 753.781 257.618Z" fill="#F8FDFE"/>
</g>
<defs>
<clipPath id="clip0_1255_18258">
<rect width="823" height="515.252" fill="white"/>
</clipPath>
</defs>
</svg>
