<svg width="91" height="91" viewBox="0 0 91 91" fill="none" xmlns="http://www.w3.org/2000/svg">
<path fill-rule="evenodd" clip-rule="evenodd" d="M45.0956 65.9268C43.5906 68.74 41.742 71.6847 39.6011 74.6079C31.2946 85.9492 21.7324 92.6716 18.2432 89.623C14.754 86.5744 18.6592 74.909 26.9656 63.5678C27.0286 63.4818 27.0917 63.396 27.1548 63.3106L27.0123 63.4237C16.0232 72.1265 4.59341 76.391 1.48309 72.9488C-1.62723 69.5066 4.75977 59.6611 15.7489 50.9584C18.5863 48.7112 21.4532 46.76 24.1986 45.161C21.4135 43.6422 18.5011 41.7823 15.6116 39.6327C4.33969 31.2472 -2.31656 21.6283 0.744472 18.1483C3.8055 14.6682 15.4247 18.6449 26.6966 27.0304C26.7632 27.0799 26.8295 27.1295 26.8958 27.179C26.8334 27.0927 26.7711 27.0062 26.7089 26.9193C18.5142 15.481 14.7099 3.75117 18.2118 0.720109C21.7137 -2.31095 31.1957 4.50452 39.3905 15.9429C41.6446 19.0892 43.5665 22.2576 45.0956 25.2609C46.6246 22.2576 48.5465 19.0892 50.8006 15.9429C58.9954 4.50452 68.4774 -2.31095 71.9793 0.720109C75.4812 3.75117 71.6769 15.481 63.4822 26.9193C63.42 27.0062 63.3577 27.0927 63.2953 27.179C63.3616 27.1295 63.428 27.0799 63.4945 27.0304C74.7664 18.6449 86.3856 14.6682 89.4466 18.1483C92.5077 21.6283 85.8514 31.2472 74.5795 39.6327C71.69 41.7823 68.7776 43.6422 65.9925 45.161C68.7379 46.76 71.6048 48.7112 74.4423 50.9584C85.4313 59.6611 91.8183 69.5066 88.708 72.9488C85.5977 76.391 74.1679 72.1265 63.1788 63.4237L63.0363 63.3106C63.0994 63.396 63.1625 63.4818 63.2255 63.5678C71.5319 74.909 75.4371 86.5744 71.9479 89.623C68.4587 92.6716 58.8965 85.9492 50.5901 74.6079C48.4491 71.6847 46.6005 68.74 45.0956 65.9268Z" fill="#F8FDFE"/>
</svg>
